<svg xmlns="http://www.w3.org/2000/svg" width="32" height="47" viewBox="0 0 32 47">
    <path fill="#323232" fill-rule="evenodd" d="M.084.722h31.419v46.197H.084V.722zm9.389 10.617l-5.152-4.59V20.07h1.434v-1.245h-.19v-9.3l2.036 1.813H6.326v1.245h4.769l4.677-6.327 4.667 6.327h4.802v-1.245h-1.464l2.036-1.814v9.3h-.19v1.246h1.435V6.749l-5.152 4.59h-.839l-5.294-7.178-5.306 7.178h-.994zm-3.718 26.7v-1.246H4.321v5.087h22.945v-5.087h-1.444v1.245h.2v2.597H5.565v-2.597h.19zm1.232-19.284h17.51v-.8H6.987v.8zm0 20.347h17.51v-.8H6.987v.8zM9.52 21.025h12.446v-.8H9.52v.8zm0 15.936h12.446v-.8H9.52v.8zm4.703-24.491l1.562-2.289 1.562 2.289-1.562 2.288-1.562-2.288zm4.129 0l-2.567-3.761-2.567 3.76 2.567 3.762 2.567-3.761zm-2.567 14.134l-1.311 1.921 1.31 1.92 1.312-1.92-1.311-1.92zm-3.9-2.995H6.756V33.85h1.566v-4.698h3.44v-1.474h-3.44v-2.595h3.562v-1.474zm7.526 0V33.85h1.566V29.66h.276l2.933 4.191h1.889l-3.194-4.376c1.367-.307 2.272-1.382 2.272-2.856 0-.445-.092-1.658-1.213-2.41-.66-.446-1.458-.6-2.702-.6H19.41zm1.566 1.443h.537c.768 0 2.135.138 2.135 1.582 0 1.627-1.75 1.673-2.18 1.673h-.492v-3.255z"/>
</svg>
