<svg xmlns="http://www.w3.org/2000/svg" width="19" height="19" viewBox="0 0 19 19">
    <path fill="#111" fill-rule="nonzero" d="M8.436 16.498c-4.452 0-8.073-3.621-8.073-8.073 0-4.45 3.621-8.072 8.073-8.072 4.45 0 8.072 3.621 8.072 8.072 0 4.452-3.621 8.073-8.072 8.073zm0-13.838A5.772 5.772 0 0 0 2.67 8.425a5.772 5.772 0 0 0 5.766 5.766A5.772 5.772 0 0 0 14.2 8.425 5.772 5.772 0 0 0 8.436 2.66zm10.04 14.175a1.152 1.152 0 1 1-1.63 1.631l-2.76-2.76a9.247 9.247 0 0 0 1.63-1.63l2.76 2.76z"/>
</svg>
